<?xml version="1.0" standalone="no"?>
<!DOCTYPE svg PUBLIC "-//W3C//DTD SVG 20010904//EN"
 "http://www.w3.org/TR/2001/REC-SVG-20010904/DTD/svg10.dtd">
<svg version="1.0" xmlns="http://www.w3.org/2000/svg"
 width="312.000000pt" height="312.000000pt" viewBox="0 0 312.000000 312.000000"
 preserveAspectRatio="xMidYMid meet">
<metadata>
Created by potrace 1.11, written by Peter Selinger 2001-2013
</metadata>
<g transform="translate(0.000000,312.000000) scale(0.100000,-0.100000)"
fill="#000000" stroke="none">
<path d="M1438 2935 c-2 -2 -26 -6 -53 -9 -27 -4 -57 -8 -65 -11 -8 -2 -26 -6
-40 -9 -138 -28 -342 -122 -465 -215 -306 -232 -479 -529 -532 -911 -10 -71
-10 -347 0 -428 18 -158 73 -346 137 -473 23 -44 111 -183 146 -228 18 -23
172 -178 204 -205 35 -30 140 -96 210 -133 249 -130 555 -165 880 -100 14 3
61 18 105 32 360 122 675 439 804 809 60 172 84 315 84 516 1 253 -42 446
-145 653 -137 277 -397 520 -673 632 -141 57 -250 77 -432 80 -88 2 -163 2
-165 0z m262 -150 c139 -19 276 -86 381 -186 123 -117 236 -345 283 -574 14
-67 17 -88 34 -235 9 -80 8 -464 -1 -540 -6 -50 -26 -166 -42 -245 -11 -55
-55 -175 -86 -237 -114 -226 -306 -377 -549 -433 -96 -22 -304 -14 -390 15
-208 70 -360 215 -465 443 -192 416 -199 1112 -15 1522 30 68 110 197 139 226
9 10 29 31 45 49 87 95 240 173 381 196 22 3 41 7 43 8 5 6 190 -1 242 -9z"/>
<path d="M1487 2597 c-88 -181 -89 -182 -83 -242 7 -64 12 -109 21 -165 3 -19
7 -57 10 -85 3 -27 7 -66 10 -85 2 -19 7 -60 10 -90 4 -30 8 -66 10 -80 2 -14
7 -59 10 -100 4 -41 8 -82 10 -90 2 -8 6 -53 10 -100 4 -47 9 -93 11 -103 2
-10 6 -54 9 -98 3 -43 8 -87 9 -96 2 -10 7 -65 11 -123 4 -58 9 -114 11 -124
14 -74 21 -435 11 -562 -5 -67 -4 -84 9 -95 20 -17 24 -12 92 126 87 174 106
253 106 445 0 85 -3 200 -7 255 -12 161 -17 227 -22 275 -3 25 -7 74 -10 110
-4 36 -10 103 -15 150 -5 47 -12 112 -15 145 -3 33 -8 71 -10 85 -6 34 -23
182 -31 255 -3 33 -7 71 -9 85 -6 37 -24 178 -31 230 -3 25 -7 56 -10 70 -2
14 -6 48 -9 75 -15 130 -11 133 -108 -68z"/>
</g>
</svg>
