<?xml version="1.0" encoding="utf-8"?>
<!-- Generator: Adobe Illustrator 22.0.1, SVG Export Plug-In . SVG Version: 6.00 Build 0)  -->
<svg version="1.1" id="Layer_1" xmlns="http://www.w3.org/2000/svg" xmlns:xlink="http://www.w3.org/1999/xlink" x="0px" y="0px"
	 width="221.78px" height="250.1px" viewBox="0 0 221.78 250.1" style="enable-background:new 0 0 221.78 250.1;"
	 xml:space="preserve">
<path style="fill:#FFFFFF;" d="M215.15,124.85c0,65.72-46.72,118.99-104.36,118.99c-57.64,0-104.37-53.27-104.37-118.99
	C6.42,59.13,53.14,5.86,110.78,5.86C168.42,5.86,215.15,59.13,215.15,124.85"/>
<path d="M221.36,122.91c-1.29-0.52-2.72-1.75-3.68-2.97c-1.07-1.33-1.66-2.69-2.12-4.47c-0.02-0.27-0.03-0.54-0.05-0.8
	c0.21-1.7,0.78-3.4,1.55-4.75c0.85-1.49,1.91-2.54,3.26-3.26c0.05-0.03,0.27-0.13,0.26-0.24c-0.02-0.14-0.35-0.19-0.4-0.2
	c-1.35-0.36-2.91-1.41-4-2.5c-1.21-1.19-1.96-2.47-2.63-4.16c-0.05-0.26-0.11-0.52-0.16-0.78c0-1.72,0.36-3.5,0.97-4.95
	c0.67-1.59,1.59-2.76,2.84-3.64c0.05-0.04,0.26-0.16,0.23-0.27c-0.03-0.13-0.37-0.14-0.42-0.15c-1.38-0.19-3.06-1.04-4.28-1.99
	c-1.34-1.02-2.24-2.2-3.1-3.8c-0.09-0.28-0.19-0.56-0.28-0.85c-0.21-1.7-0.07-3.5,0.35-5c0.46-1.66,1.23-2.94,2.37-3.97
	c0.04-0.04,0.23-0.19,0.19-0.3c-0.05-0.13-0.38-0.09-0.44-0.1c-1.39-0.01-3.16-0.64-4.49-1.42c-1.49-0.86-2.54-1.94-3.62-3.46
	c-0.1-0.22-0.2-0.45-0.31-0.68c-0.43-1.67-0.52-3.48-0.3-5.03c0.25-1.71,0.84-3.08,1.84-4.25c0.03-0.05,0.2-0.22,0.15-0.32
	c-0.06-0.12-0.39-0.04-0.45-0.04c-1.38,0.17-3.21-0.22-4.63-0.82c-1.61-0.67-2.79-1.6-4.08-3c-0.11-0.16-0.21-0.33-0.31-0.5
	c-0.67-1.62-1.01-3.43-0.99-5.03c0.02-1.73,0.43-3.17,1.26-4.47c0.03-0.05,0.17-0.25,0.11-0.34c-0.08-0.11-0.39,0.01-0.45,0.03
	c-1.34,0.36-3.21,0.22-4.7-0.19c-1.69-0.45-2.99-1.21-4.46-2.44c-0.11-0.13-0.22-0.27-0.33-0.4c-0.9-1.51-1.49-3.28-1.69-4.88
	c-0.22-1.71-0.01-3.2,0.63-4.6c0.02-0.05,0.14-0.27,0.06-0.35c-0.1-0.1-0.39,0.07-0.44,0.09c-1.28,0.55-3.15,0.67-4.68,0.48
	c-1.73-0.2-3.12-0.77-4.73-1.77c-0.14-0.12-0.27-0.25-0.41-0.37c-1.1-1.36-1.94-3.01-2.37-4.56c-0.46-1.66-0.47-3.16-0.04-4.64
	c0.01-0.06,0.1-0.29,0.01-0.36c-0.11-0.08-0.37,0.12-0.43,0.15c-1.19,0.73-3.02,1.14-4.56,1.18c-1.72,0.06-3.17-0.3-4.89-1.03
	c-0.21-0.14-0.42-0.28-0.63-0.41c-1.27-1.16-2.33-2.64-2.98-4.07c-0.71-1.57-0.95-3.05-0.75-4.58c0-0.06,0.05-0.3-0.05-0.35
	c-0.12-0.06-0.35,0.18-0.4,0.22c-1.06,0.91-2.81,1.6-4.32,1.88c-1.66,0.32-3.13,0.21-4.9-0.22c-0.3-0.13-0.6-0.28-0.91-0.41
	c-1.39-0.93-2.63-2.17-3.49-3.45c-0.95-1.43-1.43-2.85-1.48-4.4c0-0.06,0-0.3-0.1-0.34c-0.13-0.04-0.32,0.24-0.36,0.28
	c-0.9,1.07-2.52,2.04-3.96,2.57c-1.56,0.58-3.01,0.72-4.77,0.59c-0.47-0.12-0.92-0.26-1.39-0.37c-1.25-0.54-2.16-1.09-3.12-2.11
	c-1.18-1.25-2.45-2.57-2.76-4.08c-0.01-0.06-0.05-0.3-0.16-0.32c-0.13-0.02-0.27,0.29-0.3,0.34c-0.71,1.21-2.72,2.44-4.05,3.21
	c-1.36,0.8-2.26,0.72-3.8,0.82c-0.53-0.04-1.06-0.11-1.6-0.14c-1.53-0.42-3.01-1.14-4.16-2.01c-1.36-1.03-2.28-1.63-2.83-3.07
	c-0.02-0.05-0.1-0.29-0.21-0.29c-0.14,0-0.22,0.33-0.24,0.39c-0.5,1.32-1.71,2.19-2.9,3.17c-1.25,1.05-2.55,1.66-4.2,2.13
	c-0.5,0.05-1,0.07-1.49,0.13c-1.58-0.15-3.15-0.61-4.43-1.27c-1.52-0.78-2.61-1.21-3.39-2.53c-0.03-0.05-0.14-0.27-0.25-0.25
	c-0.14,0.03-0.16,0.36-0.18,0.42c-0.27,1.38-1.22,2.44-2.23,3.62c-1.07,1.26-2.25,2.08-3.82,2.84c-0.45,0.13-0.91,0.23-1.36,0.36
	c-1.59,0.12-3.24-0.06-4.62-0.49c-1.62-0.51-2.87-0.74-3.86-1.91c-0.04-0.04-0.19-0.24-0.29-0.2c-0.13,0.05-0.1,0.39-0.1,0.45
	c-0.04,1.41-0.71,2.61-1.51,3.94c-0.85,1.43-1.89,2.45-3.32,3.46c-0.39,0.18-0.78,0.36-1.16,0.55c-1.57,0.4-3.25,0.49-4.71,0.29
	c-1.68-0.24-2.47-0.25-3.63-1.25c-0.05-0.04-0.22-0.21-0.32-0.15c-0.12,0.07-0.04,0.4-0.03,0.46c0.18,1.4-0.76,2.68-1.35,4.13
	c-0.61,1.55-1.48,2.73-2.73,3.96c-0.33,0.23-0.66,0.45-0.98,0.68c-1.51,0.65-3.17,1.02-4.66,1.04c-1.7,0.03-2.56,0.23-3.86-0.57
	c-0.05-0.03-0.25-0.17-0.34-0.1c-0.11,0.09,0.02,0.4,0.04,0.46c0.39,1.36-0.27,2.67-0.62,4.19c-0.37,1.63-1.04,2.92-2.09,4.34
	c-0.28,0.26-0.55,0.53-0.83,0.79c-1.4,0.87-3.01,1.48-4.48,1.73c-1.68,0.28-3.15,0.12-4.55-0.48c-0.05-0.02-0.27-0.13-0.35-0.05
	c-0.09,0.1,0.08,0.39,0.1,0.45c0.58,1.28,0.77,3.18,0.63,4.73c-0.13,1.66-0.61,3.04-1.44,4.59c-0.24,0.3-0.48,0.6-0.72,0.9
	c-1.27,1.06-2.77,1.88-4.19,2.33c-1.62,0.51-3.1,0.56-4.57,0.16c-0.06-0.01-0.29-0.09-0.35,0c-0.08,0.11,0.13,0.38,0.16,0.43
	c0.75,1.19,1.2,3.04,1.27,4.59c0.1,1.66-0.19,3.09-0.8,4.73c-0.21,0.34-0.42,0.68-0.63,1.03c-1.11,1.2-2.47,2.2-3.81,2.83
	c-1.54,0.73-3,0.97-4.51,0.77c-0.06,0-0.3-0.05-0.35,0.05c-0.06,0.12,0.18,0.36,0.22,0.4c0.9,1.08,1.58,2.85,1.86,4.38
	c0.31,1.63,0.21,3.08-0.17,4.78c-0.17,0.38-0.35,0.76-0.52,1.14c-0.95,1.32-2.16,2.48-3.39,3.27c-1.44,0.92-2.85,1.36-4.38,1.35
	c-0.06,0-0.3-0.01-0.34,0.1c-0.05,0.13,0.22,0.33,0.27,0.37c1.03,0.95,1.93,2.62,2.4,4.1c0.51,1.56,0.6,3,0.44,4.72
	c-0.12,0.41-0.25,0.81-0.36,1.22c-0.78,1.43-1.84,2.74-2.97,3.69c-1.31,1.09-2.66,1.71-4.18,1.9c-0.06,0.01-0.3,0.02-0.32,0.14
	c-0.03,0.14,0.26,0.3,0.31,0.33c1.14,0.81,2.24,2.35,2.89,3.77c0.68,1.45,0.95,2.85,1.01,4.53c-0.08,0.45-0.14,0.91-0.21,1.36
	c-0.6,1.51-1.49,2.94-2.5,4.01c-1.17,1.25-2.44,2.02-3.92,2.4c-0.06,0.02-0.29,0.06-0.31,0.18c-0.01,0.14,0.3,0.26,0.35,0.29
	c1.23,0.67,2.5,2.06,3.32,3.38c0.84,1.33,1.27,2.66,1.53,4.28c-0.03,0.51-0.04,1.03-0.06,1.54c-0.42,1.54-1.13,3.03-1.98,4.19
	c-1.02,1.38-2.18,2.3-3.61,2.86c-0.05,0.02-0.29,0.1-0.28,0.21c0,0.14,0.33,0.23,0.38,0.25c1.29,0.51,2.72,1.74,3.69,2.96
	c1,1.24,1.59,2.53,2.05,4.15c0.03,0.48,0.06,0.95,0.1,1.43c-0.23,1.59-0.76,3.17-1.48,4.44c-0.85,1.5-1.9,2.55-3.25,3.27
	c-0.05,0.03-0.27,0.13-0.26,0.24c0.02,0.14,0.35,0.19,0.41,0.2c1.35,0.35,2.91,1.4,4.01,2.49c1.15,1.12,1.88,2.32,2.52,3.87
	c0.08,0.44,0.18,0.88,0.27,1.33c-0.03,1.64-0.37,3.31-0.94,4.68c-0.66,1.59-1.58,2.77-2.83,3.65c-0.05,0.04-0.25,0.16-0.22,0.28
	c0.03,0.13,0.37,0.14,0.43,0.15c1.38,0.18,3.06,1.03,4.28,1.97c1.26,0.96,2.13,2.06,2.96,3.51c0.15,0.46,0.31,0.9,0.46,1.35
	c0.18,1.63,0.05,3.34-0.35,4.78c-0.46,1.66-1.22,2.95-2.35,3.98c-0.04,0.04-0.23,0.19-0.19,0.3c0.05,0.13,0.38,0.09,0.44,0.09
	c1.39,0,3.16,0.63,4.49,1.41c1.41,0.81,2.43,1.82,3.45,3.21c0.18,0.39,0.36,0.78,0.54,1.17c0.38,1.6,0.47,3.3,0.26,4.78
	c-0.24,1.71-0.83,3.08-1.82,4.26c-0.04,0.05-0.2,0.22-0.15,0.32c0.07,0.12,0.39,0.04,0.45,0.04c1.38-0.18,3.21,0.21,4.63,0.81
	c1.53,0.63,2.68,1.51,3.89,2.79c0.21,0.33,0.4,0.66,0.62,0.99c0.6,1.54,0.91,3.23,0.9,4.74c-0.01,1.72-0.42,3.17-1.24,4.47
	c-0.03,0.05-0.17,0.25-0.1,0.34c0.08,0.11,0.39-0.01,0.45-0.03c1.34-0.36,3.21-0.23,4.7,0.17c1.61,0.42,2.88,1.15,4.27,2.27
	c0.23,0.27,0.45,0.54,0.67,0.8c0.82,1.45,1.37,3.1,1.57,4.61c0.22,1.71,0.02,3.2-0.61,4.6c-0.02,0.05-0.14,0.27-0.06,0.35
	c0.1,0.1,0.39-0.07,0.44-0.09c1.28-0.55,3.15-0.69,4.68-0.5c1.66,0.18,3.02,0.73,4.55,1.64c0.25,0.22,0.5,0.45,0.75,0.67
	c1.03,1.32,1.82,2.88,2.23,4.34c0.47,1.66,0.49,3.16,0.06,4.64c-0.01,0.06-0.1,0.29,0,0.36c0.11,0.08,0.38-0.13,0.42-0.16
	c1.19-0.74,3.02-1.15,4.55-1.19c1.67-0.07,3.09,0.27,4.73,0.94c0.32,0.2,0.63,0.42,0.95,0.62c1.2,1.13,2.21,2.53,2.84,3.91
	c0.72,1.56,0.96,3.04,0.77,4.58c0,0.06-0.05,0.3,0.05,0.35c0.12,0.06,0.35-0.18,0.4-0.22c1.06-0.91,2.8-1.61,4.31-1.9
	c1.62-0.32,3.06-0.22,4.77,0.17c0.4,0.17,0.79,0.37,1.19,0.53c1.34,0.91,2.53,2.1,3.36,3.33c0.96,1.43,1.44,2.84,1.49,4.39
	c0.01,0.06,0,0.3,0.11,0.34c0.13,0.04,0.32-0.24,0.35-0.28c0.9-1.08,2.51-2.05,3.95-2.59c1.53-0.58,2.95-0.72,4.67-0.62
	c0.45,0.11,0.89,0.23,1.34,0.33c1.47,0.67,2.84,1.64,3.86,2.71c1.18,1.24,1.89,2.56,2.2,4.07c0.01,0.06,0.05,0.3,0.16,0.32
	c0.13,0.02,0.27-0.29,0.3-0.34c0.71-1.22,2.13-2.45,3.46-3.23c1.4-0.83,2.78-1.21,4.47-1.41c0.48,0.03,0.95,0.07,1.43,0.1
	c1.55,0.41,3.06,1.13,4.23,2c1.37,1.02,2.29,2.2,2.85,3.64c0.02,0.05,0.1,0.29,0.21,0.28c0.14,0,0.22-0.33,0.24-0.39
	c0.5-1.32,1.7-2.78,2.88-3.77c1.25-1.07,2.56-1.68,4.22-2.16c0.15-0.02,0.3-0.02,0.45-0.04c1.61,0.15,3.23,0.62,4.55,1.3
	c1.51,0.79,2.6,1.8,3.38,3.13c0.03,0.05,0.14,0.27,0.25,0.25c0.13-0.03,0.17-0.36,0.18-0.42c0.28-1.38,1.23-3.02,2.25-4.19
	c1.1-1.29,2.32-2.12,3.96-2.88c0.37-0.1,0.75-0.19,1.12-0.29c1.63-0.13,3.32,0.06,4.74,0.51c1.62,0.52,2.86,1.33,3.85,2.51
	c0.04,0.05,0.18,0.24,0.29,0.2c0.13-0.05,0.1-0.39,0.11-0.45c0.05-1.41,0.72-3.19,1.53-4.51c0.89-1.48,1.97-2.51,3.49-3.56
	c0.3-0.14,0.61-0.27,0.92-0.41c1.6-0.41,3.32-0.5,4.81-0.28c1.68,0.25,3.04,0.85,4.2,1.85c0.05,0.04,0.22,0.21,0.32,0.15
	c0.12-0.07,0.04-0.4,0.03-0.46c-0.18-1.4,0.2-3.26,0.79-4.7c0.65-1.62,1.56-2.82,2.91-4.12c0.23-0.16,0.47-0.31,0.7-0.47
	c1.54-0.68,3.26-1.05,4.79-1.06c1.7-0.02,3.13,0.36,4.43,1.17c0.05,0.03,0.25,0.17,0.34,0.1c0.11-0.09-0.02-0.4-0.04-0.46
	c-0.39-1.36-0.29-3.26,0.07-4.77c0.4-1.71,1.12-3.05,2.27-4.55c0.18-0.16,0.36-0.32,0.53-0.49c1.44-0.92,3.11-1.55,4.64-1.8
	c1.68-0.27,3.15-0.1,4.55,0.51c0.05,0.02,0.27,0.13,0.35,0.05c0.09-0.1-0.08-0.39-0.1-0.45c-0.58-1.29-0.75-3.18-0.61-4.73
	c0.14-1.76,0.67-3.19,1.6-4.85c0.14-0.17,0.29-0.34,0.43-0.52c1.3-1.11,2.87-1.97,4.35-2.44c1.63-0.5,3.1-0.55,4.57-0.14
	c0.06,0.01,0.29,0.09,0.35,0c0.08-0.11-0.13-0.38-0.16-0.43c-0.75-1.19-1.18-3.04-1.26-4.6c-0.1-1.76,0.23-3.25,0.92-5.03
	c0.11-0.18,0.23-0.36,0.34-0.55c1.14-1.28,2.59-2.35,4-3.01c1.55-0.72,3-0.96,4.51-0.76c0.06,0,0.3,0.05,0.35-0.05
	c0.06-0.12-0.18-0.36-0.22-0.4c-0.89-1.08-1.57-2.85-1.85-4.39c-0.33-1.73-0.2-3.25,0.25-5.1c0.08-0.19,0.17-0.37,0.25-0.55
	c0.97-1.43,2.28-2.69,3.61-3.53c1.44-0.91,2.86-1.34,4.38-1.34c0.06,0,0.3,0.02,0.34-0.09c0.05-0.13-0.22-0.33-0.27-0.37
	c-1.02-0.96-1.92-2.63-2.39-4.11c-0.54-1.66-0.61-3.18-0.39-5.06c0.06-0.2,0.12-0.4,0.18-0.61c0.79-1.54,1.93-2.95,3.14-3.95
	c1.32-1.09,2.67-1.7,4.18-1.88c0.06-0.01,0.3-0.02,0.33-0.14c0.03-0.14-0.26-0.3-0.31-0.33c-1.13-0.82-2.23-2.36-2.87-3.78
	c-0.73-1.55-0.98-3.02-1.01-4.86c0.04-0.26,0.08-0.51,0.12-0.77c0.6-1.61,1.56-3.13,2.62-4.26c1.18-1.25,2.45-2.02,3.92-2.39
	c0.06-0.02,0.29-0.06,0.31-0.18c0.01-0.14-0.3-0.27-0.35-0.29c-1.22-0.67-2.5-2.07-3.3-3.39c-0.89-1.42-1.32-2.83-1.57-4.61
	c0.02-0.33,0.04-0.66,0.05-0.99c0.42-1.62,1.16-3.19,2.06-4.41c1.02-1.38,2.19-2.3,3.62-2.84c0.05-0.02,0.28-0.1,0.28-0.21
	C221.73,123.03,221.41,122.94,221.36,122.91z M7.47,124.76C7.47,59.78,53.84,6.92,110.85,6.92c57.01,0,103.39,52.86,103.39,117.84
	c0,64.98-46.38,117.84-103.39,117.84C53.84,242.6,7.47,189.74,7.47,124.76z"/>
<path style="fill:#D2C694;" d="M11.62,124.95c0-63.1,44.42-114.25,99.21-114.25c54.79,0,99.22,51.15,99.22,114.25
	c0,63.1-44.42,114.25-99.22,114.25C56.04,239.2,11.62,188.05,11.62,124.95"/>
<path style="fill:none;stroke:#000000;stroke-width:1.6631;" d="M11.62,124.95c0-63.1,44.42-114.25,99.21-114.25
	c54.79,0,99.22,51.15,99.22,114.25c0,63.1-44.42,114.25-99.22,114.25C56.04,239.2,11.62,188.05,11.62,124.95z"/>
<path d="M55.43,184.6c1.09,0.26,2.33,0.95,3.43,2.28c1.17,1.42,1.37,2.21,1.86,3.44c0.11,0.26,0.15,0.47-0.21,0.77
	c-0.21,0.17-1.09,0.94-1.34,1.14c-0.29,0.24-1.32,0.95-1.54,0.68c-0.24-0.29,0.52-0.64,0.9-1.34c0.54-1.01,0.84-2.38-0.75-4.3
	c-1.31-1.58-3.02-1.96-4.82-0.48c-1.08,0.9-1.34,2.37-1.13,4.24l0.41,3.42c0.25,2.22-0.8,4.13-2.3,5.37
	c-2.33,1.93-5.04,1.29-7.2-1.32c-0.91-1.1-1.44-2.42-1.68-2.71c-0.36-0.44-0.54-0.36-0.77-0.63c-0.14-0.17,0.51-0.36,0.74-0.54
	c0.25-0.21,0.84-0.73,1.09-0.93c0.12-0.1,0.95-0.72,1.25-0.86c0.26-0.15,0.39-0.25,0.54-0.06c0.28,0.33-0.57,0.79-0.84,1.19
	c-0.22,0.32-0.44,0.96-0.43,1.48c-0.03,0.69,0.16,1.55,1.07,2.66c0.81,0.98,2.52,1.74,4.13,0.41c1.23-1.02,1.47-2.13,1.19-4.08
	l-0.38-2.53c-0.31-2.16-0.22-4.52,1.78-6.17C51.66,184.74,53.3,184.05,55.43,184.6 M41.02,177.22c0.11-0.13,0.39-0.47,0.53-0.55
	c0.24-0.13,0.46,0.36,0.54,0.5l1.98,3.48c0.09,0.17,0.21,0.26,0,0.38c-0.07,0.04-0.42,0.08-0.91,0.14c-2.26,0.23-4.73,0.61-5.4,0.68
	c-0.12,0.01-0.2,0.08-0.27-0.03c-0.07-0.12,0.2-0.36,0.27-0.46L41.02,177.22 M44.34,165.49c-0.42,0.24,0.26,1.5,0.05,2
	c-0.21,0.46-0.42,0.96-0.73,1.35l-11.33,14.33c-0.11,0.13-0.32,0.43-0.21,0.62c0.09,0.16,0.32,0.13,0.47,0.11l18.49-2.46
	c0.99-0.13,1.7-0.07,2.38,0.73c0.1,0.13,0.36,0.64,0.6,0.5c0.31-0.17,0.03-0.55-0.08-0.73c-0.43-0.75-0.89-1.39-1.32-2.15
	c-0.38-0.66-0.67-1.33-1.04-1.99c-0.12-0.21-0.22-0.44-0.52-0.26c-0.24,0.13,0.16,0.94,0.22,1.15c0.08,0.36,0.26,0.85-0.16,1.09
	c-0.38,0.21-1.24,0.45-1.67,0.51l-2.98,0.45c-0.85,0.14-0.96-0.04-1.35-0.73l-2.38-4.19c-0.34-0.59,0.15-0.99,0.64-1.61l1.7-2.15
	c0.25-0.33,0.75-0.71,1.15-0.93c0.92-0.52,1.24,0.97,1.71,0.71c0.21-0.12-0.05-0.53-0.12-0.65c-0.59-1.03-1.36-2.21-1.94-3.25
	c-0.37-0.66-0.69-1.38-1.07-2.04C44.77,165.75,44.55,165.37,44.34,165.49z M21.22,152.54c-0.5-0.41-0.63-1.36-0.96-1.26
	c-0.28,0.09-0.03,0.63,0.02,0.79c0.1,0.31,0.58,1.4,0.79,2.08c0.21,0.67,0.45,1.79,0.53,2.05c0.11,0.36,0.22,0.53,0.4,0.47
	c0.36-0.11-0.33-1.06,0.17-1.72c0.3-0.41,1.63-0.96,3.07-1.42l8.39-2.63c0.54-0.17,0.62,0,0.55,0.14c0,0-2.21,4.61-4.1,7.98
	c-2.66,4.72-4.35,8.28-4.35,8.28c-0.28,0.54-0.62,1.27-0.54,1.53c0.06,0.21,0.09,0.28,1.48-0.15l13.89-4.35
	c1.03-0.32,2.12-0.47,2.88,0.06c0.51,0.35,0.57,1.01,0.83,0.93c0.21-0.07,0.21-0.15,0.11-0.46c-0.08-0.26-0.65-1.72-0.86-2.39
	c-0.21-0.67-0.55-2.12-0.7-2.59c-0.17-0.54-0.25-0.63-0.49-0.56c-0.31,0.1,0.21,1.13-0.05,1.83c-0.23,0.61-1.2,1.14-2.18,1.45
	l-6.51,2.04c-1.11,0.35-2.37,0.77-3,0.91c-0.29,0.06-0.36,0.03-0.38-0.02c-0.06-0.18,0.05-0.47,0.2-0.72c0,0,2.78-5.41,3.5-6.65
	c0.78-1.32,4.87-8.98,4.87-8.98c0.42-0.75,0.75-1.23,0.65-1.53c-0.11-0.36-0.92-0.03-1.46,0.15l-13.4,4.2
	C23.06,152.44,21.52,152.78,21.22,152.54 M18.64,126.86c-0.03-4.95,3.9-7.76,8.93-7.79c6.14-0.04,8.11,2.87,8.13,6.39
	c0.02,2.87-0.39,2.71-0.79,3.28c-0.21,0.33-2.27,0.45-3.24,0.45l-11.96,0.07c-0.73,0-1.06-0.34-1.06-1.02
	C18.64,128.23,18.64,127.5,18.64,126.86 M26.79,115.99c-4.06,0.02-6.89,2.21-8.12,4.51c-0.78,1.44-1.09,3.55-1.08,5.12
	c0.02,2.79,0.22,4.19,0.22,5.82c0,0.7-0.1,2.14-0.09,2.62c0,0.54,0.19,0.76,0.3,0.75c0.19,0,0.24-0.11,0.24-0.35
	c-0.01-1.3,0.23-2.11,1.96-2.12l12.28-0.07c1.27-0.01,2.6,0.09,3.22,0.36c0.41,0.19,0.46,0.43,0.52,0.75
	c0.06,0.32,0.11,0.97,0.3,0.97c0.19,0,0.32-0.14,0.32-0.54c0-0.54-0.12-1.11-0.12-2.6c-0.01-1.68,0.19-3.49,0.18-5.57
	c-0.02-3.6-1.31-6.13-3.73-7.85C31.59,116.66,29.47,115.97,26.79,115.99z M38.42,106.46c0.03-0.19-0.02-0.41-0.21-0.44
	c-0.11-0.01-0.23,0.1-0.29,0.31c-0.15,0.44-0.23,0.81-0.39,0.98c-0.77,0.79-1.72,0.57-5.26,0.04l-10.38-1.53
	c-0.54-0.08-1.61-0.24-1.87-0.88c-0.2-0.49-0.12-1.19-0.34-1.23c-0.13-0.02-0.31,0.06-0.39,0.6c-0.06,0.4-0.1,1.98-0.2,2.68
	c-0.1,0.7-0.51,2.71-0.53,2.87c-0.03,0.21,0.02,0.61,0.15,0.62c0.27,0.04,0.27-0.73,0.71-1.32c0.31-0.42,1.21-0.42,1.93-0.32
	l12.9,1.91c1.47,0.22,2.09,0.45,2.45,0.85c0.23,0.28,0.27,0.59,0.22,0.91c-0.04,0.27,0.12,0.51,0.2,0.52
	c0.16,0.02,0.34-0.09,0.39-0.43c0.04-0.24,0.05-1.09,0.32-2.88C38.02,108.47,38.39,106.67,38.42,106.46 M26.5,87.78
	c0.04-0.16-0.17-0.21-0.43-0.29c-0.63-0.17-1.25-0.26-1.87-0.44c-0.18-0.05-0.64-0.32-0.72-0.03c-0.13,0.47-0.2,0.93-0.33,1.39
	c-0.3,1.07-0.26,1.14-0.53,2.21c-0.34,1.31-0.68,2.65-1.05,3.95c-0.2,0.7-0.5,1.38-0.69,2.08c-0.04,0.16-0.16,0.57,0.07,0.64
	c0.29,0.08,0.49-0.96,0.92-1.29c0.36-0.27,1.95,0.07,2.36,0.18l8.83,2.47c0.94,0.26,4.64,1.3,5.38,1.87
	c0.69,0.53-0.02,1.79,0.39,1.91c0.31,0.09,0.47-0.57,0.53-0.78c0.24-0.86,0.38-1.75,0.62-2.61c0.58-2.08,0.94-3.08,1.53-5.16
	c0.07-0.23,0.09-0.62-0.02-0.82c-0.06-0.1-0.37-0.3-0.76-0.6c-0.51-0.4-1.16-0.88-1.42-0.96c-0.13-0.04-0.34-0.09-0.39,0.09
	c-0.04,0.16,0.53,0.6,0.61,0.65c0.35,0.35,0.6,0.76,0.65,1.28c0.04,0.74,0.02,1.02-0.17,1.72c-0.19,0.68-0.33,1.2-0.94,1.56
	c-0.37,0.23-0.69,0.15-1.1,0.03l-6.28-1.75c-0.23-0.07-0.34-0.1-0.27-0.36l0.66-2.34c0.09-0.34,0.22-0.89,0.53-1.09
	c0.71-0.42,1.45,0.04,1.55-0.32c0.07-0.26-0.36-0.33-0.51-0.37c-0.65-0.18-1.06-0.24-1.71-0.42c-0.47-0.13-0.87-0.41-1.34-0.54
	c-0.31-0.09-0.84-0.21-0.91,0.05c-0.06,0.21,0.45,0.41,0.5,0.42c0.32,0.17,0.67,0.33,0.82,0.68c0.15,0.35,0.01,0.96-0.09,1.32
	l-0.59,2.11c-0.11,0.39-0.12,0.44-0.52,0.33l-6.28-1.75c-0.49-0.14-0.46-0.27-0.33-0.74l0.49-1.77c0.13-0.47,0.35-1.16,0.62-1.6
	c0.3-0.48,0.81-0.7,1.34-0.78C25.86,87.88,26.41,88.09,26.5,87.78 M41.97,70.57c-0.09-0.49,0.14-1.04-0.03-1.13
	c-0.24-0.12-0.41,0.11-0.48,0.25c-0.07,0.15-0.68,1.86-1,2.55c-0.55,1.15-1.31,2.31-1.44,2.58c-0.16,0.34-0.15,0.5,0.05,0.59
	c0.24,0.12,0.26-0.42,1.37-1c0.31-0.15,0.97,0.1,1.34,0.28l2.61,1.24c1.27,0.6,2.09,1.02,2.23,1.87c0.1,0.61,0,1.89-0.38,2.69
	c-2,4.2-5.92,4.95-12.39,1.87c-3.71-1.77-5.75-4.92-4.03-8.54c1.44-3.03,3.82-4.75,4.63-5.02c0.64-0.21,1.24,0.11,1.36,0.17
	c0.32,0.15,0.68,0.14,0.75,0c0.1-0.22-0.19-0.36-0.57-0.63c-0.59-0.4-0.91-0.49-1.65-0.94c-0.89-0.51-1.17-0.76-1.26-0.81
	c-0.12-0.06-0.28-0.16-0.36,0.01c-0.09,0.2,0.26,0.33-0.05,0.99c-0.35,0.73-2.11,2.17-3.72,5.54c-0.64,1.34-1,2.67-1.06,3.87
	c-0.22,4.24,2.61,7.41,5.57,8.82c4.1,1.95,7.2,1.75,9.82-0.06c1.78-1.22,2.82-2.58,3.89-4.83c1.5-3.15,1.61-5.4,1.54-6.19
	c-0.02-0.28-0.29-0.41-0.58-0.55c-0.24-0.11-1.17-0.56-1.95-0.93l-1.88-0.89C43.25,71.9,42.09,71.26,41.97,70.57 M41.91,54.15
	c2.82-3.6,8.59-1.44,12.23,1.41c2.92,2.29,4.74,5.61,2.32,8.7c-2.64,3.36-7.38,2.57-11.7-0.82C42.27,61.48,39.03,57.81,41.91,54.15
	 M54.58,51.71c-3.11-2.44-7.4-2.92-10.84-0.73c-1.09,0.69-1.95,1.6-2.66,2.52c-2.69,3.43-2.24,7.94,0.31,11.21
	c0.62,0.79,1.35,1.44,2.09,2.02c4.53,3.56,10.07,2.95,13.64-1.61C60.91,60.29,58.86,55.07,54.58,51.71z M76.36,46.18
	c0.75-2.08,0.22-3.78-0.64-5.05c-1.45-2.15-3.79-2.47-5.97-2.37l-2.56,0.13c-1.97,0.09-3.05-0.26-3.94-1.58
	c-1.17-1.73-0.24-3.36,0.81-4.07c1.19-0.8,2.06-0.9,2.75-0.81c0.52,0.04,1.13,0.32,1.43,0.57c0.37,0.31,0.74,1.2,1.1,0.95
	c0.2-0.14,0.11-0.27-0.01-0.55c-0.11-0.31-0.64-1.2-0.74-1.33c-0.18-0.27-0.64-0.9-0.82-1.17c-0.17-0.25-0.29-0.91-0.47-0.79
	c-0.29,0.2-0.23,0.39-0.7,0.7c-0.31,0.21-1.68,0.61-2.87,1.41c-2.8,1.89-3.7,4.52-2.01,7.03c1.09,1.61,2.9,2.84,5.13,2.81l3.44-0.07
	c1.88-0.03,3.32,0.37,4.11,1.54c1.3,1.93,0.77,3.6-0.94,4.75c-2.06,1.39-3.4,0.96-4.35,0.33c-0.65-0.44-0.93-1.23-1.24-1.02
	c-0.29,0.2,0.32,1.29,0.53,1.6c0.18,0.27,0.85,1.22,1.01,1.44c0.26,0.38,0.47,0.37,0.74,0.28c1.28-0.38,2.08-0.49,3.61-1.52
	C75.18,48.41,75.99,47.24,76.36,46.18 M86.77,22.72c-0.1-0.46-0.15-0.93-0.18-1.01c-0.1-0.25-0.32-0.34-0.49-0.26
	c-0.05,0.02-2.48,1.14-3.38,1.52l-6.18,2.55c-0.72,0.3-2.1,0.78-2.69,0.93c-0.4,0.1-0.62-0.01-0.87,0.1
	c-0.27,0.11-0.13,0.32-0.08,0.88c0.06,0.56,0.32,1.92,0.4,2.09c0.08,0.2,0.2,0.56,0.43,0.47c0.3-0.12-0.02-0.4,0.1-0.68
	c0.12-0.28,0.11-1.16,0.68-1.39l3.65-1.51c0.4-0.17,0.51,0.17,0.62,0.44l1.32,3l3.1,7.5c0.66,1.6,1.45,3.73,1.49,4.18
	c0.08,0.96-1.51,1.03-1.31,1.51c0.08,0.2,0.38,0.08,0.66-0.04c0.2-0.08,2.19-0.99,2.94-1.3c0.5-0.21,2.16-0.8,2.58-0.98
	c0.4-0.16,0.72-0.3,0.62-0.55c-0.12-0.3-0.67,0.07-1.01,0.1c-0.39,0.04-0.77,0.05-1.08-0.14c-0.71-0.44-1.8-3.38-2.73-5.61
	l-1.96-4.75c-0.9-2.18-1.57-3.86-1.76-4.4c-0.15-0.44-0.05-0.39,0.36-0.56l2.4-0.99c1.35-0.56,1.77-0.26,1.95-0.16
	c0.29,0.14,0.4,0.98,0.7,0.85C87.39,24.37,86.89,23.38,86.77,22.72 M100.51,28.86c0.08,0.15,0.31,0.52,0.33,0.69
	c0.04,0.27-0.5,0.3-0.66,0.33l-3.95,0.66c-0.19,0.03-0.31,0.11-0.35-0.13c-0.01-0.08,0.07-0.42,0.18-0.91
	c0.56-2.21,1.06-4.65,1.22-5.31c0.04-0.11-0.01-0.22,0.12-0.24c0.13-0.02,0.27,0.31,0.34,0.41L100.51,28.86 M110.37,36.02
	c-0.08-0.48-1.5-0.27-1.89-0.64c-0.36-0.35-0.75-0.73-1.01-1.15l-9.55-15.57c-0.08-0.15-0.29-0.44-0.51-0.41
	c-0.19,0.03-0.23,0.26-0.26,0.4l-4.06,18.21c-0.22,0.97-0.52,1.62-1.51,1.98c-0.16,0.05-0.72,0.12-0.68,0.39
	c0.06,0.35,0.5,0.22,0.72,0.18c0.85-0.14,1.61-0.35,2.47-0.5c0.75-0.12,1.48-0.16,2.23-0.29c0.24-0.04,0.48-0.05,0.43-0.4
	c-0.04-0.27-0.93-0.17-1.16-0.19c-0.36-0.05-0.88-0.04-0.97-0.52c-0.07-0.43,0-1.32,0.09-1.74l0.6-2.95
	c0.16-0.85,0.37-0.88,1.15-1.01l4.75-0.79c0.67-0.11,0.88,0.48,1.29,1.16l1.43,2.34c0.22,0.35,0.4,0.95,0.48,1.4
	c0.18,1.04-1.34,0.83-1.25,1.36c0.04,0.24,0.51,0.13,0.65,0.11c1.17-0.2,2.55-0.51,3.72-0.7c0.75-0.12,1.54-0.17,2.28-0.3
	C109.99,36.33,110.41,36.26,110.37,36.02z M123.6,19.93c0.11-0.45,0.27-0.91,0.28-0.99c0.02-0.27-0.14-0.44-0.33-0.45
	c-0.05,0-2.73-0.06-3.71-0.12l-6.67-0.41c-0.78-0.05-2.24-0.22-2.83-0.34c-0.4-0.08-0.55-0.28-0.82-0.29
	c-0.3-0.02-0.26,0.23-0.45,0.76c-0.2,0.53-0.55,1.86-0.56,2.05c-0.01,0.22-0.06,0.59,0.18,0.61c0.32,0.02,0.16-0.37,0.39-0.57
	c0.23-0.2,0.6-0.99,1.22-0.95l3.94,0.24c0.43,0.03,0.38,0.38,0.37,0.67l-0.12,3.27l-0.5,8.1c-0.1,1.73-0.32,3.99-0.49,4.41
	c-0.35,0.9-1.81,0.27-1.84,0.78c-0.01,0.22,0.31,0.24,0.61,0.25c0.22,0.01,2.41,0.07,3.22,0.12c0.54,0.03,2.29,0.22,2.75,0.25
	c0.43,0.03,0.78,0.05,0.8-0.22c0.02-0.33-0.64-0.23-0.95-0.36c-0.37-0.13-0.71-0.29-0.91-0.6c-0.44-0.71-0.14-3.83,0-6.23l0.31-5.13
	c0.15-2.35,0.28-4.16,0.34-4.72c0.06-0.46,0.13-0.37,0.56-0.34l2.59,0.16c1.46,0.09,1.7,0.54,1.83,0.71
	c0.2,0.26-0.06,1.05,0.26,1.07C123.44,21.68,123.42,20.56,123.6,19.93 M139.45,25.91c0.16,0.05,0.22-0.16,0.3-0.42
	c0.19-0.62,0.29-1.24,0.48-1.86c0.05-0.18,0.33-0.63,0.05-0.72c-0.47-0.14-0.92-0.22-1.39-0.36c-1.06-0.32-1.13-0.29-2.2-0.58
	c-1.3-0.37-2.63-0.74-3.93-1.13c-0.7-0.21-1.37-0.53-2.07-0.74c-0.16-0.05-0.57-0.17-0.64,0.06c-0.09,0.28,0.95,0.51,1.27,0.95
	c0.26,0.36-0.11,1.95-0.24,2.36l-2.66,8.78c-0.28,0.93-1.4,4.61-1.98,5.33c-0.55,0.68-1.79-0.06-1.92,0.35
	c-0.09,0.31,0.56,0.48,0.77,0.54c0.86,0.26,1.74,0.41,2.6,0.67c2.07,0.63,3.06,1.01,5.13,1.64c0.24,0.07,0.62,0.1,0.82-0.01
	c0.1-0.05,0.31-0.36,0.62-0.75c0.41-0.5,0.91-1.14,0.99-1.4c0.04-0.13,0.1-0.34-0.08-0.39c-0.16-0.05-0.61,0.52-0.66,0.59
	c-0.36,0.34-0.77,0.59-1.29,0.63c-0.74,0.03-1.02,0-1.72-0.21c-0.67-0.2-1.19-0.36-1.54-0.98c-0.22-0.38-0.13-0.69,0-1.1l1.89-6.24
	c0.07-0.23,0.1-0.34,0.36-0.26l2.33,0.71c0.34,0.1,0.89,0.24,1.07,0.55c0.41,0.72-0.07,1.45,0.29,1.56
	c0.26,0.08,0.33-0.35,0.38-0.51c0.2-0.65,0.26-1.05,0.46-1.7c0.14-0.47,0.43-0.86,0.57-1.33c0.09-0.31,0.23-0.84-0.03-0.91
	c-0.21-0.06-0.42,0.44-0.43,0.49c-0.18,0.31-0.34,0.66-0.7,0.81c-0.36,0.15-0.96-0.01-1.32-0.12l-2.1-0.63
	c-0.39-0.12-0.44-0.13-0.32-0.52l1.89-6.24c0.15-0.49,0.28-0.45,0.75-0.31l1.76,0.53c0.47,0.14,1.16,0.38,1.58,0.65
	c0.47,0.31,0.68,0.83,0.75,1.36C139.36,25.26,139.14,25.81,139.45,25.91 M170.03,42.35c0.86,0.23,0.97,0.56,1.14,0.35
	c0.2-0.26-0.17-0.44-0.4-0.63c-0.17-0.13-0.92-0.59-1.72-1.22c-0.81-0.64-1.68-1.46-1.89-1.63c-0.3-0.23-0.5-0.33-0.64-0.16
	c-0.13,0.17,0.7,0.73,0.95,1.72c0.14,0.52-1.41,2.88-2.97,4.86l-3.67,4.65c-2.68,3.4-5.09,3.26-8.15,0.84
	c-3.06-2.41-2.57-5.44-0.69-7.82l4.26-5.39c2.71-3.44,3.23-3.62,3.82-3.53c0.33,0.06,0.84,0.42,0.94,0.29
	c0.14-0.17,0.04-0.31-0.26-0.55c-0.21-0.17-1.08-0.68-2.21-1.57c-0.93-0.74-1.72-1.49-2.23-1.89c-0.32-0.25-0.43-0.24-0.59-0.05
	c-0.08,0.11,0.72,0.88,0.77,1.47c0.02,0.33-1.05,1.72-1.85,2.74l-5.58,7.07c-2.8,3.55-1.38,6.77,2.36,9.72
	c4.03,3.18,7.67,3.16,10.92-0.96l4.74-6.01C167.99,43.54,168.91,42.06,170.03,42.35 M186.16,62.4c0.6,0.22,1.04,1.08,1.32,0.87
	c0.24-0.18-0.18-0.61-0.28-0.74c-0.19-0.26-1.01-1.13-1.43-1.7c-0.42-0.56-1.01-1.54-1.17-1.76c-0.22-0.3-0.38-0.42-0.53-0.31
	c-0.3,0.23,0.66,0.89,0.41,1.68c-0.15,0.48-1.22,1.45-2.43,2.35l-7.05,5.25c-0.46,0.34-0.59,0.2-0.57,0.05c0,0,0.57-5.08,1.24-8.89
	c0.95-5.33,1.37-9.25,1.37-9.25c0.09-0.61,0.17-1.41,0-1.62c-0.13-0.17-0.18-0.24-1.35,0.63l-11.67,8.69
	c-0.87,0.65-1.85,1.14-2.74,0.89c-0.6-0.16-0.87-0.77-1.09-0.6c-0.17,0.13-0.15,0.21,0.05,0.47c0.16,0.22,1.19,1.41,1.61,1.98
	c0.42,0.56,1.22,1.82,1.51,2.21c0.34,0.46,0.45,0.51,0.64,0.36c0.26-0.19-0.57-0.99-0.56-1.74c0.02-0.65,0.76-1.47,1.58-2.09
	l5.47-4.07c0.93-0.69,1.98-1.51,2.54-1.85c0.25-0.16,0.33-0.15,0.36-0.1c0.11,0.15,0.11,0.46,0.05,0.74c0,0-0.84,6.02-1.11,7.43
	c-0.3,1.5-1.63,10.08-1.63,10.08c-0.14,0.85-0.3,1.41-0.11,1.67c0.23,0.3,0.87-0.28,1.33-0.62l11.26-8.39
	C184.45,63.1,185.79,62.27,186.16,62.4 M175.91,82.95c0.09,0.17,0.25,0.33,0.42,0.24c0.1-0.05,0.14-0.22,0.06-0.42
	c-0.13-0.45-0.27-0.8-0.24-1.03c0.19-1.09,1.1-1.45,4.3-3.03l9.41-4.65c0.49-0.24,1.46-0.72,2.03-0.34
	c0.45,0.29,0.78,0.91,0.97,0.82c0.12-0.06,0.22-0.23-0.02-0.71c-0.18-0.36-1.04-1.69-1.36-2.32c-0.31-0.63-1.13-2.52-1.2-2.67
	c-0.1-0.19-0.36-0.49-0.48-0.43c-0.24,0.12,0.19,0.75,0.16,1.49c-0.01,0.52-0.76,1.04-1.41,1.36l-11.69,5.78
	c-1.33,0.66-1.97,0.83-2.49,0.69c-0.35-0.1-0.56-0.33-0.7-0.62c-0.12-0.24-0.39-0.35-0.46-0.32c-0.15,0.07-0.23,0.26-0.08,0.58
	c0.11,0.22,0.58,0.92,1.38,2.55C175.1,81.06,175.82,82.76,175.91,82.95 M201.15,98.56c0.03,0.02,0.07,0.04,0.09,0.03
	c0.23-0.07,0.13-0.49,0.08-0.65c-0.19-0.62-0.51-1.18-0.7-1.8c-0.18-0.6-0.27-1.25-0.46-1.84c-0.06-0.21-0.09-0.4-0.35-0.32
	c-0.31,0.1,0.13,0.87-0.68,1.11c-0.41,0.13-1.03,0.15-1.46,0.11l-12.07-1.4c-0.12-0.02-0.36-0.06-0.4-0.19
	c-0.05-0.15,0.22-0.38,0.31-0.46l8.4-7.27c0.4-0.35,1.65-1.27,2.14-1.43c0.75-0.23,0.7,0.8,1.06,0.69c0.21-0.06,0.09-0.45,0.05-0.58
	c-0.22-0.72-0.62-1.65-0.86-2.4c-0.3-0.98-0.49-1.97-0.8-2.95c-0.05-0.16-0.22-0.72-0.46-0.65c-0.23,0.07-0.07,0.7-0.06,0.9
	c0.08,1.16-0.75,1.96-1.56,2.66l-13.52,11.79c-0.13,0.13-0.28,0.29-0.23,0.47c0.06,0.18,0.29,0.28,0.46,0.31l17.49,2.08
	c0.82,0.09,2.08,0.23,2.75,0.76C200.98,97.99,200.91,98.32,201.15,98.56 M200.43,113.96c0.02,0.16,0.24,0.13,0.5,0.1
	c0.64-0.09,1.25-0.25,1.89-0.34c0.19-0.02,0.72,0.04,0.67-0.25c-0.07-0.48-0.18-0.93-0.24-1.41c-0.15-1.1-0.21-1.15-0.38-2.24
	c-0.21-1.34-0.42-2.7-0.6-4.04c-0.1-0.72-0.09-1.46-0.19-2.19c-0.02-0.16-0.08-0.59-0.32-0.56c-0.29,0.04-0.07,1.07-0.34,1.55
	c-0.22,0.38-1.82,0.71-2.24,0.77l-9.09,1.22c-0.96,0.13-4.77,0.64-5.68,0.41c-0.85-0.21-0.69-1.65-1.12-1.6
	c-0.32,0.04-0.2,0.71-0.17,0.92c0.12,0.89,0.35,1.76,0.46,2.64c0.29,2.15,0.35,3.2,0.64,5.35c0.03,0.24,0.16,0.61,0.35,0.74
	c0.09,0.07,0.45,0.13,0.94,0.26c0.62,0.16,1.41,0.35,1.68,0.32c0.13-0.02,0.35-0.05,0.32-0.23c-0.02-0.16-0.73-0.34-0.81-0.36
	c-0.46-0.18-0.85-0.46-1.11-0.91c-0.33-0.66-0.42-0.93-0.52-1.65c-0.09-0.7-0.17-1.23,0.25-1.81c0.25-0.36,0.57-0.4,1-0.46
	l6.46-0.87c0.24-0.03,0.35-0.05,0.38,0.22l0.32,2.41c0.05,0.35,0.15,0.91-0.06,1.21c-0.48,0.67-1.35,0.54-1.3,0.91
	c0.04,0.27,0.46,0.16,0.62,0.13c0.67-0.09,1.07-0.2,1.73-0.29c0.48-0.06,0.96,0.04,1.44-0.03c0.32-0.04,0.85-0.14,0.82-0.41
	c-0.03-0.21-0.57-0.19-0.63-0.19c-0.36-0.03-0.74-0.04-1.02-0.3c-0.28-0.26-0.39-0.88-0.44-1.25l-0.29-2.17
	c-0.05-0.4-0.06-0.46,0.34-0.51l6.46-0.87c0.51-0.07,0.53,0.07,0.59,0.55l0.25,1.82c0.06,0.48,0.14,1.21,0.07,1.71
	c-0.09,0.56-0.47,0.96-0.92,1.24C200.99,113.62,200.39,113.64,200.43,113.96 M202.64,126.54c-0.07,2.62-2.51,3.69-4.54,3.63
	c-2.73-0.08-3.46-0.96-3.94-2.14c-0.05-0.16-0.16-0.19-0.13-1.19l0.03-0.97c0.01-0.3-0.03-0.97,0.3-0.97l7.14,0.2
	c0.54,0.01,1.19,0.17,1.17,0.79C202.66,125.89,202.65,126.32,202.64,126.54 M184.75,138.46c0.35,0.01,0.23-0.62,0.3-0.94
	c0.25-1.24,1.88-2.55,3.43-3.77l4.93-3.84c0.25-0.18,0.33-0.23,0.44-0.1c0.16,0.22,1.64,3.35,5.13,3.45
	c3.05,0.09,4.84-2.73,4.93-6.06c0.03-1.11-0.13-2.28-0.09-3.63c0.04-1.43,0.19-2.81,0.19-3.08c0.01-0.41-0.09-0.46-0.28-0.47
	c-0.3-0.01-0.16,0.89-0.75,1.63c-0.17,0.21-0.82,0.38-1.36,0.37l-13.93-0.39c-1.03-0.03-1.81-0.16-2.09-0.79
	c-0.21-0.44-0.27-1.06-0.48-1.07c-0.22-0.01-0.26,0.48-0.27,0.81c-0.01,0.27,0.05,2,0.03,2.76c-0.02,0.76-0.18,2.59-0.19,2.86
	c-0.01,0.38,0.09,0.57,0.28,0.58c0.22,0.01,0.24-0.75,0.41-1.07c0.14-0.24,0.2-0.48,0.53-0.61c0.33-0.15,1.25-0.4,3.26-0.34l3.6,0.1
	c0.16,0,0.21,0.09,0.21,0.25l-0.03,1.03c-0.03,1.05-1.23,1.32-2.22,2.02l-4.17,3.02c-1.46,1.07-2.02,2.76-2.07,4.54l-0.05,1.73
	C184.41,137.77,184.42,138.45,184.75,138.46z M183.17,147.65c0.95,1.99,2.53,2.81,4.04,3.1c2.55,0.48,4.42-0.96,5.88-2.58l1.71-1.91
	c1.32-1.46,2.33-1.98,3.9-1.69c2.05,0.38,2.56,2.19,2.33,3.44c-0.26,1.41-0.81,2.1-1.36,2.53c-0.39,0.34-1.02,0.58-1.41,0.61
	c-0.48,0.05-1.37-0.31-1.45,0.11c-0.04,0.24,0.11,0.27,0.4,0.38c0.31,0.14,1.31,0.38,1.46,0.41c0.32,0.06,1.1,0.18,1.41,0.24
	c0.29,0.06,0.85,0.44,0.9,0.22c0.06-0.35-0.11-0.43-0.01-0.99c0.07-0.37,0.75-1.62,1.01-3.03c0.62-3.33-0.61-5.81-3.59-6.37
	c-1.92-0.36-4.06,0.06-5.6,1.67l-2.37,2.5c-1.3,1.35-2.6,2.1-3.98,1.84c-2.29-0.43-3.1-1.98-2.72-4.01
	c0.46-2.44,1.71-3.09,2.83-3.32c0.77-0.16,1.53,0.2,1.6-0.17c0.07-0.34-1.14-0.68-1.51-0.75c-0.32-0.06-1.47-0.25-1.73-0.3
	c-0.45-0.08-0.59,0.08-0.72,0.33c-0.63,1.17-1.11,1.83-1.45,3.63C182.41,145.25,182.67,146.65,183.17,147.65 M179.16,158.82
	c-0.06,0.18-0.04,0.41,0.14,0.47c0.1,0.03,0.25-0.07,0.34-0.27c0.21-0.42,0.35-0.77,0.54-0.91c0.88-0.66,1.79-0.3,5.2,0.76
	l10.03,3.09c0.52,0.16,1.55,0.48,1.71,1.15c0.12,0.52-0.06,1.2,0.15,1.26c0.13,0.04,0.32-0.02,0.48-0.53
	c0.12-0.39,0.4-1.94,0.61-2.61c0.21-0.67,0.91-2.61,0.96-2.76c0.06-0.21,0.07-0.6-0.06-0.64c-0.26-0.08-0.38,0.68-0.91,1.19
	c-0.37,0.37-1.26,0.23-1.96,0.02l-12.46-3.84c-1.42-0.44-2-0.76-2.29-1.21c-0.19-0.31-0.18-0.62-0.08-0.93
	c0.08-0.26-0.04-0.52-0.11-0.55c-0.15-0.05-0.35,0.03-0.45,0.37c-0.07,0.23-0.22,1.07-0.75,2.8
	C179.87,156.88,179.22,158.61,179.16,158.82 M188.23,182.36c0.38,0.27,0.74,0.59,0.82,0.62c0.24,0.11,0.46,0.04,0.54-0.14
	c0.02-0.05,1.06-2.52,1.47-3.4l2.83-6.05c0.33-0.71,1.02-2,1.35-2.5c0.22-0.34,0.46-0.41,0.58-0.66c0.13-0.27-0.12-0.32-0.54-0.7
	c-0.42-0.38-1.53-1.19-1.7-1.28c-0.2-0.09-0.53-0.28-0.63-0.06c-0.14,0.29,0.29,0.28,0.39,0.57c0.1,0.29,0.7,0.92,0.44,1.49
	l-1.68,3.58c-0.18,0.39-0.49,0.22-0.76,0.09l-3-1.31l-7.35-3.44c-1.57-0.73-3.59-1.77-3.93-2.08c-0.71-0.66,0.41-1.78-0.05-1.99
	c-0.2-0.09-0.33,0.2-0.46,0.47c-0.09,0.2-0.95,2.21-1.29,2.95c-0.23,0.49-1.05,2.05-1.24,2.47c-0.18,0.39-0.33,0.71-0.09,0.82
	c0.29,0.14,0.45-0.51,0.68-0.76c0.26-0.3,0.53-0.56,0.89-0.63c0.82-0.15,3.61,1.27,5.8,2.29l4.66,2.18c2.13,1,3.76,1.79,4.27,2.05
	c0.4,0.22,0.29,0.26,0.11,0.65l-1.1,2.35c-0.62,1.32-1.13,1.38-1.33,1.44c-0.31,0.09-0.96-0.45-1.09-0.15
	C186.66,181.57,187.7,181.96,188.23,182.36 M175.48,202.38c-0.03,0.04-0.24,0.33-0.13,0.41c0.24,0.18,0.49-0.21,0.6-0.36
	c0.52-0.7,0.95-1.42,1.47-2.11c0.29-0.39,0.66-0.76,0.95-1.15c0.13-0.17,0.4-0.54,0.16-0.72c-0.17-0.13-0.59,0.74-1.09,0.37
	c-0.58-0.44-1.16-1.84-1.38-2.54l-1.65-5.23c-0.04-0.13-0.13-0.33-0.05-0.44c0.1-0.13,0.33-0.13,0.46-0.13l7.12,0.12
	c0.47,0.01,1.16,0.08,1.55,0.37c0.22,0.16-0.38,0.93-0.21,1.06c0.26,0.19,0.65-0.33,0.76-0.48c0.53-0.72,1.12-1.7,1.65-2.41
	c0.44-0.59,0.97-1.13,1.41-1.72c0.13-0.17,0.58-0.74,0.3-0.95c-0.17-0.13-0.99,0.75-1.22,0.88c-0.5,0.27-1.28,0.23-1.84,0.22
	l-9.57-0.22c-0.47-0.01-0.71-0.13-1.08-0.4l-4.04-3c-0.41-0.31-1.32-0.98-1.39-1.53c-0.02-0.29,0.02-0.53,0.09-0.81
	c0.07-0.18,0.44-0.72,0.24-0.87c-0.26-0.19-0.65,0.43-0.77,0.58c-0.51,0.69-1.05,1.55-1.56,2.24c-0.5,0.67-1.15,1.41-1.65,2.08
	c-0.13,0.17-0.58,0.68-0.29,0.89c0.24,0.18,0.47-0.22,0.58-0.37c0.23-0.31,0.8-0.58,1.19-0.6c0.46-0.03,0.91,0.27,1.28,0.55
	c1.54,1.14,3.06,2.27,4.61,3.41c0.32,0.24,0.84,0.86,0.96,1.25l2.61,8.56c0.12,0.43,0.42,1.76,0.31,2.18
	C175.76,201.87,175.65,202.07,175.48,202.38"/>
<polyline points="62.27,204.59 68.28,204.16 68.72,210.18 62.69,210.61 "/>
<path d="M85.29,215.99c0.58-1.37,1.02-2.48,1.38-3.34c0.26-0.61,0.39-0.92,0.01-1.07c-0.48-0.2-2.81-0.02-3.47-0.03
	c-0.15,0-0.3-0.01-0.4-0.05c-0.08-0.03-0.12-0.2-0.06-0.35c0.06-0.15,0.25-0.23,0.41-0.25c0.12-0.01,6.33-1.16,7.53-1.44
	c0.27-0.07,0.6-0.14,0.8-0.05c0.23,0.1,0.16,0.4,0.05,0.65c-0.09,0.2-1.28,2.67-2.92,6.56l-1.99,4.7c-1.03,2.44-1.94,4.6-2.32,5.76
	c-0.27,0.85-0.3,1.28,0.44,1.8c0.35,0.24,1.41,0.77,1.61,0.86c0.1,0.04,0.17,0.16,0.1,0.34c-0.08,0.18-0.22,0.18-0.5,0.06
	c-1.93-0.82-3.53-1.58-4.21-1.87c-0.58-0.25-2.75-1.07-4.38-1.76c-0.28-0.12-0.38-0.22-0.31-0.4c0.08-0.18,0.21-0.21,0.31-0.17
	c0.28,0.12,1.58,0.58,2.11,0.68c0.86,0.16,1.17-0.14,1.59-0.92c0.57-1.07,1.49-3.24,2.52-5.68 M103.19,213.59
	c1.64,0.23,2.84,1.62,2.55,3.67c-0.39,2.76-2.42,3.56-3.26,3.81c-2.29-1.74-3.31-3.03-3.07-4.72
	C99.62,214.82,100.81,213.26,103.19,213.59 M96.97,227.74c0.39-2.79,2.38-4.21,3.97-4.85c2.23,1.76,4.24,3.35,3.86,6.09
	c-0.35,2.52-2.3,3.89-4.44,3.59C98.15,232.26,96.63,230.18,96.97,227.74z M99.97,233.79c4.59,0.64,7.64-1.83,8.1-5.05
	c0.47-3.39-2.32-5.51-4.12-6.82c1.58-0.36,4.33-1.62,4.73-4.49c0.37-2.65-1.68-4.5-5.02-4.97c-4.65-0.65-6.87,1.91-7.17,4.04
	c-0.33,2.32,1.16,4.06,3.26,5.56c-2.8,0.7-5.46,2.38-5.89,5.42C93.39,230.84,95.92,233.23,99.97,233.79z M126.8,218.59
	c-0.65-4.15-3.6-7.03-8.04-6.33c-4.2,0.66-6.56,3.78-5.98,7.46c0.36,2.29,2.47,5,6.39,4.38c1.39-0.22,2.74-0.85,3.4-1.82
	c0.05-0.06,0.1-0.24,0.09-0.32c-0.02-0.14-0.15-0.23-0.26-0.21c-0.11,0.02-0.22,0.18-0.5,0.39c-0.33,0.22-0.85,0.47-1.8,0.62
	c-0.93,0.15-3.78-0.41-4.44-4.58c-0.37-2.32,0.67-4.27,2.63-4.58c2.1-0.33,4.48,1.47,5.24,6.3c1.02,6.43-2.53,11.58-5.09,13.74
	c-0.12,0.13-0.28,0.32-0.25,0.52c0.02,0.14,0.18,0.25,0.29,0.23c0.22-0.04,0.35-0.08,0.47-0.19
	C122.09,232.08,128.01,226.23,126.8,218.59 M131.09,209.32c-2.67,1.2-3.36,1.21-3.51,1.28c-0.15,0.07-0.21,0.22-0.09,0.47
	c0.11,0.25,1.07,3.37,1.48,4.3c0.11,0.25,0.19,0.37,0.37,0.29c0.15-0.07,0.17-0.23,0.1-0.44c-0.13-0.43-0.17-1.38,0.15-1.89
	c0.42-0.68,1.46-1.2,2.16-1.52l6.52-2.94c-0.85,7.38-0.72,16.25-0.33,18.99c0.05,0.46,0.17,0.86,0.29,1.11
	c0.1,0.23,0.21,0.27,0.49,0.14c1.13-0.51,2.7-2.46,2.48-2.97c-0.15-0.33-0.28-0.48-0.42-0.93c-1.07-3.39-1.66-15.15-0.91-19.06
	c0.03-0.13,0.04-0.38-0.03-0.53c-0.06-0.13-0.22-0.14-0.69,0.07"/>
<polyline points="153.61,209.79 153.93,203.77 159.95,204.08 159.64,210.11 "/>
<path style="fill:#FFFFFF;" d="M43.42,124.76c0-44.94,30.31-81.36,67.71-81.36c37.39,0,67.71,36.43,67.71,81.36
	c0,44.94-30.31,81.36-67.71,81.36C73.74,206.12,43.42,169.69,43.42,124.76"/>
<g>
	<path d="M169.36,113.13c0,0-2.58-53.87-56.44-53.87c-19.66,0-36.7,5.41-45.49,8.83c-12.31,14.28-20.01,34.57-20.01,57.09
		c0,43.22,28.33,78.27,63.29,78.27c23.26,0,43.58-15.53,54.58-38.66L169.36,113.13z"/>
	<path style="fill:#D2C694;" d="M133.47,139.9c0,0-0.27,0.08-0.35,0.11c-1.01,0.39-1.57,1.37-1.55,1.87c0,0,0,8.27,0,8.27
		c0,0,1.61-0.2,1.6-0.22c0-0.01-0.02-8.26-0.02-8.27C133.15,141.05,133.21,140.48,133.47,139.9z"/>
	<path style="fill:#FFFFFF;" d="M171.27,129.14l-2.6-18.41l0,0c-3.8-1.27-11.16-1.91-13.25-2.04c-1.71-0.22-5.09-0.31-6.53-0.31
		c-6.26-0.04-9.44,0.71-9.68,0.69c-0.09-0.01-3.72,0.63-4.36,0.99c0,0,4.15,31.52,4.09,33.11c-0.46,11.48-4.17,43.79-4.07,45.77
		c0.93-1.41,4.52-5.68,13.4-4.57c0,0,2.08,0.95,4.21-1.09c0,0,0.59-0.43,1.47-0.99c8.01-9.27,14.06-21.08,17.32-34.4v-17.61
		l2.54,0.48c0.02-0.36,0.05-0.71,0.07-1.07L171.27,129.14z"/>
	<path d="M166.79,127l0,1.18l7.08,1.51c0.02-0.54,0.04-1.09,0.05-1.63L166.79,127z"/>
	<path style="fill:#A81933;" d="M110.7,46.9c-20.13,0-38.05,11.64-49.64,29.75c3.15-0.01,11.2,0.37,14.23,4.45
		c1.13,1.27,1.58,3.24,2.66,4.2c1.39,1.23,2.55,1.31,3.58,1.82c0.62,0.31,4.96,1.82,5.63,7.52c0.47-2.4,0.45-4.73,0.42-5.21h-0.01
		v-0.07c0-0.02,0-0.03-0.01-0.03l0.01,0v-1.2l-0.72-0.69l0,0c0-0.01,1.13-1.96,1.73-2.99c-0.5-0.14-0.87-0.55-0.87-1.05
		c0-0.61,0.54-1.1,1.21-1.1c0.67,0,1.21,0.49,1.21,1.1c0,0.49-0.36,0.9-0.84,1.04c0.17,0.3,0.39,0.67,0.61,1.05
		c1.17-1.33,4.07-4.58,4.07-4.58c0.02-0.01-0.06-4.26-0.04-4.64c-0.08-0.07-1.51-1.27-1.51-1.29c-0.03,0.03,5.92-2.94,5.9-2.94
		c17.94,0,10.88,4.93,20.23,21.4c1.46,7.41,4.55,12.26,9.18,14.68c5.1-1.83,18.92-6.3,18.92-6.3c0.99-0.11,0.45,0.68,0.45,0.68
		l-11.69,5.52c0.05-0.01,0.1-0.02,0.15-0.03c1.85-0.38,3.91-0.65,5.45-0.78c7.49-0.8,15.12-1.1,25.77,1.45
		c0.83,0.24,1.4,0.47,1.4,0.47c0.11,0.61-0.3,0.87-0.3,0.87c-0.15,0.28-0.93,0.23-1.1,0.21c0,0,0,0,0,0l0,16.79l7.12,1.69
		c0.04-1.17,0.07-2.34,0.07-3.52C173.99,81.94,145.66,46.9,110.7,46.9z"/>
	<path d="M166.82,129.43l-0.04,5.61l6.54,1.41c0.22-1.87,0.38-3.77,0.48-5.68L166.82,129.43z"/>
	<path style="fill:#A81933;" d="M130.94,188.56c0.01,0,0,1.97,0,1.97c0,0-29.73,0.06-29.73,0.04c0,0-0.89-1.46-1.46-2.04
		C99.74,188.53,130.91,188.54,130.94,188.56"/>
	<path style="fill:#FFFFFF;" d="M128.56,105.82c-0.01-0.04-1.38-2.39-2.1-3.63c0.59-0.17,1.02-0.67,1.02-1.27
		c0-0.74-0.65-1.33-1.47-1.33c-0.81,0-1.47,0.6-1.47,1.33c0,0.61,0.45,1.11,1.05,1.28c-0.31,0.52-0.72,1.24-1.11,1.9
		c-0.14-0.13-0.26-0.25-0.32-0.32c-0.16-0.16-1.34-1.58-2.17-6.26c-0.01,0.14,0.04-6.24-0.02-6.36c0,0,0.02-0.02,0.05-0.06
		l0.63-0.61l0,0c0-0.02-1.24-2.16-1.89-3.27c0.53-0.16,0.92-0.6,0.92-1.14c0-0.66-0.59-1.2-1.32-1.2c-0.73,0-1.32,0.54-1.32,1.2
		c0,0.54,0.4,1,0.95,1.15c-0.24,0.42-0.57,0.99-0.89,1.53c-0.66-1.09-4.17-5.59-4.17-6.79c0.04-0.89-0.04-6.25-0.03-6.28
		c0,0,1.55-1.21,1.54-1.21c0,0.01-8.47-4.98-8.83-4.86c0,0.01-9.27,2.38-9.3,2.42c0,0.01,1.49,1.35,1.51,1.35
		c0.02,0.42,0.33,6.59-0.14,7.38c-0.36,0.62-2.45,3.73-3.3,5.03c-0.4-0.69-0.89-1.53-1.22-2.1c0.53-0.16,0.92-0.6,0.92-1.14
		c0-0.66-0.59-1.2-1.32-1.2c-0.73,0-1.32,0.54-1.32,1.2c0,0.54,0.4,1,0.95,1.15c-0.65,1.12-1.89,3.25-1.88,3.26v0l0.78,0.76v0.86
		c-0.04,1.2-0.08,2.73-0.08,4.2c-0.14,2.64-1.22,4.91-1.87,6.02c-0.36-0.62-0.73-1.26-1.01-1.74c0.59-0.17,1.02-0.67,1.02-1.27
		c0-0.74-0.66-1.34-1.47-1.34c-0.81,0-1.47,0.6-1.47,1.34c0,0.6,0.44,1.11,1.05,1.27c-0.5,0.85-1.25,2.13-1.25,2.15
		c0,0,8.36,2.6,8.99,3.06c1.62,1.33,1.14,2.13,0.78,2.47c-0.46,0.4-1.4-0.05-1.4-0.05c0,0-1.01-0.53-1.82-0.95
		c-1.83-0.94-0.78-0.43-3.48-1.45c-1.64-0.49-5.56-1.22-6.28-1.29c-2.06-0.37-5.06-0.64-6.28-0.67c-3.22-0.17-6.5-0.24-9.67,0.16
		c0,0-0.33-0.05-0.37,0.37l-0.2,75.73c0.01,0.01,1.67,0.09,1.68,0.09c0,0,5.76-0.61,9.77,4.96c0.53,0.21,4.73-2.7,11.5,2.83
		c0.4,0.33,0.64,0.65,1.2,1c0.56,0.35,1.54,0.37,1.88,0.48c0.82,0.18,1.55,0.31,2.21,0.48c0.16-1.97-0.54-44.62-0.54-44.62
		c-0.01,0-0.01-3.79-0.01-3.79c3.25-12.85,18.96-12.01,24.99-4.5l0-8.81c0,0-7.68-0.8-7.64-0.84c0.05,0.04,9.2-10.13,11.35-12.57
		c-0.86-0.52-0.91-1.73,2.82-3.04c0,0.01,0-1.55,0-1.59l0.65-0.63C128.47,105.91,128.57,105.82,128.56,105.82
		C128.57,105.82,128.56,105.82,128.56,105.82z"/>
	<path style="fill:#A81933;" d="M121.19,135.75c-2.33-3.97-6.71-6.62-11.81-6.62c-6.49,0-11.94,4.26-13.2,10l0-5.09
		c2.64-4.29,7.54-7.09,13.2-7.09c4.72,0,8.94,2,11.79,5.21L121.19,135.75"/>
	<path style="fill:#D2C694;" d="M136.59,140.9c0.01,0.13,0.15,6.96,0.15,9.05c0,0.14-0.38,0.17-0.78,0.21
		c-0.56,0.06-1.07,0.13-1.07,0.13c0,15.57-0.13,31.09-0.13,37.31c0,0.87,0.02,1.25,0.04,1.42c0.74-1.17,3.65-4.81,10.66-4.82
		c-0.01-21.95-0.04-75.77-0.01-75.77c-4.09,0.09-10,1.27-10.7,1.61c-0.01,0-0.05,29.02-0.05,29.02c0.02,0.13,0,0.1,0.05,0.19
		C135.06,139.58,136.43,139.16,136.59,140.9z"/>
	<path style="fill:#D2C694;" d="M78.64,143.48c-1.03-0.07-2.96-0.19-2.96-0.19v-8.97c0-1.42,1.36-2.48,2.73-2.31
		c0.08,0.01,0.16,0.01,0.24,0.03c0,0,0,0,0,0c0,0,0,0,0,0c0-17.09,0-31.78,0-31.78c-6.42-0.23-10.13-0.18-12.09,0.02
		c0.01-0.03,0.03,76.33,0.03,76.33c0.25,0.01,1.38,0.04,2.31,0.06c0.36,0.01,1.01,0.02,1.25,0.02c0,0,4.58-0.53,8.5,3.41
		C78.64,179.24,78.64,156.57,78.64,143.48C78.64,143.48,78.64,143.48,78.64,143.48C78.64,143.48,78.64,143.48,78.64,143.48z"/>
	<path style="fill:#A81933;" d="M99.25,184.49v-16.13l0,0c0-0.06,0-0.12,0-0.19c0.1-3.92,3.22-7.06,7.07-7.06
		c2.84,0,5.28,1.73,6.41,4.21v-10.38c-1.94-0.97-4.11-1.53-6.41-1.53c-3.71,0-7.1,1.42-9.68,3.77c-0.1,0.09-0.07,0.16-0.16,0.24
		v10.74h0l-0.03,18.34l2.8,0v0c3.83,0,22.42-0.01,22.41-0.01c0,0.01,0-2.01,0-2C121.67,184.48,102.85,184.49,99.25,184.49z"/>
	<path style="fill:#D2C694;" d="M98.48,141.65L98.48,141.65c-0.77,0-1.55,0.06-2.29,0.16l0.27,15.69
		c4.39-4.18,10.75-5.24,16.27-2.46C112.9,147.11,106.15,141.65,98.48,141.65z"/>
	<path d="M173.75,118.65l-6.96-2.05l0,1.9l7.07,1.97C173.84,119.86,173.79,119.26,173.75,118.65z"/>
	<path d="M119.03,109.77v8.89l-7.54-0.65l0-9.13v-0.15c0.03-1.38,1.69-2.48,3.77-2.47c2.31,0.02,3.77,2.08,3.77,3.45L119.03,109.77"
		/>
	<path d="M104.25,108.19v8.88l-7.61-0.65l0.01-9.12v-0.15c0.03-1.38,1.7-2.48,3.8-2.46c2.33,0.02,3.81,2.08,3.81,3.45L104.25,108.19
		"/>
	<path d="M116.41,94.79v8.23l-5.86-0.6l0-8.46v-0.13c0.03-1.28,1.31-2.3,2.93-2.29c1.79,0.02,2.93,1.93,2.93,3.2L116.41,94.79"/>
	<path d="M110.55,79.57v7.92l-5.62-0.68l-0.01-8.02v-0.13c0.02-1.23,1.26-2.21,2.82-2.2c1.72,0.02,2.82,1.86,2.82,3.07V79.57"/>
	<path d="M104.98,93.44v8.37l-5.96-0.61l0-8.6v-0.14c0.02-1.3,1.33-2.34,2.98-2.32c1.82,0.02,2.98,1.96,2.98,3.25V93.44"/>
	<path d="M88.08,135.72c0,0-0.05,9.11-0.03,9.08c-2.14-0.43-4.88-0.85-4.88-0.85l0.01-8.69v-0.01c0-1.28,1.09-2.3,2.45-2.3
		C86.99,132.96,88.08,134.44,88.08,135.72L88.08,135.72"/>
	<path d="M80.64,134.8l-0.01,8.82c-2.8-0.19-4.97-0.33-4.97-0.33v-8.95v-0.01c0-1.3,1.11-2.34,2.49-2.34
		C79.54,131.99,80.65,133.5,80.64,134.8L80.64,134.8"/>
	<path style="fill:#A81933;" d="M95.12,100.97c3.02,1.58,2.88,2.01,3.11,2.43c0.07,0.27,0.05,0.53,0.03,0.62
		c-3.66-4.26-19.47-6.29-29.36-5.52c0,0-6.07,0.43-8.55,0.44c-0.83,0.01-0.25-0.4-0.25-0.4c0.48-0.19,11.38-4.04,11.77-4.16
		c0.59-0.19,2.39-0.75,3.11-0.41C76.3,94.14,93.35,99.89,95.12,100.97"/>
</g>
<path d="M44.07,125.1c0-44.73,29.95-81.12,66.77-81.12c36.82,0,66.77,36.39,66.77,81.12c0,44.73-29.95,81.12-66.77,81.12
	C74.02,206.22,44.07,169.83,44.07,125.1 M42.41,125.1c0,45.64,30.7,82.78,68.43,82.78c37.73,0,68.43-37.13,68.43-82.78
	c0-45.65-30.7-82.78-68.43-82.78C73.11,42.32,42.41,79.46,42.41,125.1z"/>
</svg>
